<svg width="100" height="100" viewBox="0 0 100 100" fill="none" xmlns="http://www.w3.org/2000/svg">
<path d="M3.62578 76.7169C2.59242 78.3481 1.4174 80.4531 0.446543 82.033C0.0203329 82.7682 -0.107131 83.6455 0.0915917 84.476C0.290314 85.3066 0.799331 86.024 1.50907 86.4737L22.197 99.5141C22.5566 99.7415 22.9568 99.8932 23.3742 99.9604C23.7916 100.028 24.2179 100.009 24.6283 99.9057C25.0386 99.8024 25.4247 99.6164 25.7642 99.3586C26.1037 99.1007 26.3896 98.7762 26.6054 98.4039C27.4346 96.9863 28.4972 95.146 29.6597 93.1903C37.8557 79.3259 46.0975 81.0082 60.9437 88.297L81.5983 98.2758C81.983 98.4637 82.4006 98.5705 82.8263 98.59C83.2521 98.6094 83.6773 98.541 84.0767 98.3889C84.4762 98.2368 84.8418 98.004 85.1518 97.7044C85.4619 97.4048 85.7101 97.0444 85.8817 96.6447L95.7319 73.8177C96.0654 73.0341 96.0855 72.1478 95.7878 71.3493C95.4902 70.5507 94.8986 69.9038 94.1402 69.5477C87.2293 66.2197 80.3332 62.8592 73.4523 59.4664C45.4642 45.602 21.7678 46.52 3.62578 76.7169ZM96.382 23.2831C97.4195 21.5537 98.5945 19.5469 99.5654 17.9456C99.9834 17.2122 100.106 16.3407 99.9067 15.5162C99.7075 14.6917 99.2024 13.9793 98.4987 13.5305L77.8149 0.485901C77.4553 0.258538 77.0551 0.106814 76.6377 0.0395734C76.2203 -0.0276671 75.794 -0.00907783 75.3836 0.094257C74.9733 0.197592 74.5871 0.383605 74.2477 0.64145C73.9082 0.899295 73.6223 1.22381 73.4065 1.59608C72.4054 3.35086 71.3859 5.09452 70.3481 6.82675C62.1562 20.6869 53.9102 18.996 39.064 11.7201L18.4886 1.72418C18.1041 1.53698 17.6869 1.4307 17.2616 1.41163C16.8363 1.39256 16.4116 1.4611 16.0127 1.61317C15.6137 1.76525 15.2485 1.99778 14.9388 2.29702C14.629 2.59625 14.381 2.95611 14.2093 3.35529L4.35913 26.1823C4.02563 26.9659 4.00555 27.8522 4.30322 28.6507C4.60088 29.4493 5.19251 30.0962 5.95083 30.4523C10.2801 32.5445 18.8886 36.7163 26.6388 40.5336C54.5477 54.3938 78.2732 53.4672 96.382 23.2831Z" fill="white"/>
</svg>
